<mxfile host="65bd71144e">
    <diagram id="sAcPeeSdI4JwfVVNuAWv" name="Page-1">
        <mxGraphModel dx="894" dy="1765" grid="1" gridSize="10" guides="1" tooltips="1" connect="1" arrows="1" fold="1" page="1" pageScale="1" pageWidth="827" pageHeight="1169" math="0" shadow="0">
            <root>
                <mxCell id="0"/>
                <mxCell id="1" parent="0"/>
                <mxCell id="2" value="" style="shape=internalStorage;whiteSpace=wrap;html=1;backgroundOutline=1;" vertex="1" parent="1">
                    <mxGeometry x="90" y="-10" width="170" height="80" as="geometry"/>
                </mxCell>
                <mxCell id="3" value="Header" style="swimlane;whiteSpace=wrap;html=1;startSize=60;" vertex="1" parent="1">
                    <mxGeometry x="40" y="210" width="610" height="610" as="geometry"/>
                </mxCell>
                <mxCell id="4" value="Block Main 1&amp;nbsp;" style="rounded=0;whiteSpace=wrap;html=1;" vertex="1" parent="3">
                    <mxGeometry x="30" y="80" width="550" height="130" as="geometry"/>
                </mxCell>
                <mxCell id="6" value="Card 1" style="whiteSpace=wrap;html=1;aspect=fixed;direction=east;" vertex="1" parent="3">
                    <mxGeometry x="30" y="230" width="150" height="150" as="geometry"/>
                </mxCell>
                <mxCell id="9" value="&lt;span style=&quot;color: rgb(240, 240, 240); font-family: Helvetica; font-size: 12px; font-style: normal; font-variant-ligatures: normal; font-variant-caps: normal; font-weight: 400; letter-spacing: normal; orphans: 2; text-align: center; text-indent: 0px; text-transform: none; widows: 2; word-spacing: 0px; -webkit-text-stroke-width: 0px; background-color: rgb(42, 37, 47); text-decoration-thickness: initial; text-decoration-style: initial; text-decoration-color: initial; float: none; display: inline !important;&quot;&gt;Card 2&lt;/span&gt;" style="whiteSpace=wrap;html=1;aspect=fixed;direction=east;" vertex="1" parent="3">
                    <mxGeometry x="230" y="230" width="150" height="150" as="geometry"/>
                </mxCell>
                <mxCell id="8" value="Card 3" style="whiteSpace=wrap;html=1;aspect=fixed;direction=east;" vertex="1" parent="3">
                    <mxGeometry x="430" y="225" width="150" height="150" as="geometry"/>
                </mxCell>
                <mxCell id="7" value="" style="whiteSpace=wrap;html=1;aspect=fixed;" vertex="1" parent="1">
                    <mxGeometry x="707" y="360" width="120" height="120" as="geometry"/>
                </mxCell>
            </root>
        </mxGraphModel>
    </diagram>
</mxfile>